<svg width="72" height="72" viewBox="0 0 72 72" fill="none" xmlns="http://www.w3.org/2000/svg">
<path fill-rule="evenodd" clip-rule="evenodd" d="M36 72C55.8823 72 72 55.8823 72 36C72 16.1177 55.8823 0 36 0C24.2385 0 13.7943 5.64031 7.22473 14.3636H25.6477C28.8864 14.3636 31.7202 14.9531 34.1492 16.1321C36.5781 17.3111 38.4673 19.0085 39.8168 21.2244C41.1662 23.4403 41.8409 26.0966 41.8409 29.1932C41.8409 32.2188 41.1804 34.7827 39.8594 36.8849C38.5526 38.9872 36.7415 40.5994 34.4261 41.7216L43.2898 58H30.4205L22.75 43.5966H18.6591V58H7.50002C7.81068 58.4319 7.83515 58.4592 7.9457 58.5827L7.94573 58.5827C8.01056 58.6551 8.10499 58.7606 8.30404 59C14.9076 66.943 24.8632 72 36 72ZM22.8352 34.392H18.6591V23.8239H22.8352C24.9091 23.8239 26.5355 24.25 27.7145 25.1023C28.8935 25.9545 29.483 27.3182 29.483 29.1932C29.483 31.054 28.8935 32.3892 27.7145 33.1989C26.5355 33.9943 24.9091 34.392 22.8352 34.392Z" fill="white"/>
</svg>
