<?xml version="1.0" standalone="no"?>
<!DOCTYPE svg PUBLIC "-//W3C//DTD SVG 20010904//EN"
 "http://www.w3.org/TR/2001/REC-SVG-20010904/DTD/svg10.dtd">
<svg version="1.0" xmlns="http://www.w3.org/2000/svg"
 width="286.000000pt" height="286.000000pt" viewBox="0 0 286.000000 286.000000"
 preserveAspectRatio="xMidYMid meet">
<metadata>
Created by potrace 1.11, written by Peter Selinger 2001-2013
</metadata>
<g transform="translate(0.000000,286.000000) scale(0.100000,-0.100000)"
fill="#000000" stroke="none">
<path d="M1190 2813 c-21 -3 -70 -11 -166 -29 -30 -6 -155 -43 -179 -54 -147
-65 -193 -90 -278 -147 -99 -66 -266 -220 -323 -298 -16 -22 -35 -46 -42 -53
-6 -7 -12 -18 -12 -23 0 -5 168 -9 418 -9 229 -1 435 -3 457 -6 223 -29 385
-164 438 -365 21 -82 16 -248 -11 -322 -38 -106 -120 -200 -217 -249 -22 -11
-42 -22 -44 -24 -3 -2 61 -126 118 -228 10 -17 39 -71 66 -121 27 -49 65 -121
87 -158 21 -38 38 -72 38 -76 0 -3 -86 -6 -191 -6 -179 0 -191 1 -202 20 -21
34 -87 156 -152 280 -35 66 -78 147 -96 180 l-32 61 -106 -1 -106 0 -5 -270
-5 -270 -220 0 c-175 -1 -219 -4 -217 -14 8 -36 143 -184 260 -284 58 -49 199
-137 285 -176 117 -54 202 -81 372 -116 63 -14 331 -13 415 0 127 21 137 23
250 62 147 50 316 142 425 232 67 55 212 210 250 266 22 33 45 65 51 72 24 25
123 240 147 318 48 153 61 240 61 410 1 219 -20 341 -94 530 -99 251 -247 438
-505 633 -96 73 -346 183 -467 206 -13 2 -34 7 -48 10 -14 3 -41 8 -60 11 -40
7 -323 14 -360 8z"/>
<path d="M650 1688 l0 -240 153 4 c176 5 235 23 286 87 59 75 62 214 5 288
-57 75 -121 95 -306 98 l-138 2 0 -239z"/>
</g>
</svg>
